# Apple ModelIO OBJ File: table
mtllib table.mtl
g 
v -2.24386 1.98983 2.1722
v -2.23492 2.01248 2.16883
v -2.29972 2.00955 2.07009
v -2.31563 1.98293 2.06942
v -2.20364 2.02207 2.15448
v -2.25891 2.01485 2.07125
v -2.12379 1.95557 2.21794
v -1.91524 1.95737 2.2596
v -1.91524 1.96679 2.27608
v -2.13738 1.96642 2.23392
v -2.20375 1.94802 2.15362
v -2.23501 1.96299 2.16822
v -1.91524 2.01244 2.25963
v -2.12376 2.0138 2.21819
v -2.13736 2.00594 2.23409
v -1.91524 2.0042 2.2761
v -1.91524 1.98682 2.28204
v -2.14159 1.9881 2.23923
v -2.25895 1.94573 2.07064
v -2.29977 1.95636 2.06961
v -2.11157 2.01144 2.20332
v -2.17101 2.01886 2.1427
v -2.20332 1.9422 2.07213
v -2.17108 1.94963 2.14198
v -1.91524 2.01176 2.24516
v -2.11158 1.95931 2.20307
v -1.91524 1.96002 2.24511
v -2.20328 2.02064 2.07282
v -1.58662 1.98983 2.1722
v -1.51485 1.98293 2.06942
v -1.53076 2.00955 2.07009
v -1.59556 2.01248 2.16883
v -1.62684 2.02207 2.15448
v -1.57158 2.01485 2.07125
v -1.70669 1.95557 2.21794
v -1.6931 1.96642 2.23392
v -1.62673 1.94802 2.15362
v -1.59547 1.96299 2.16822
v -1.69312 2.00594 2.23409
v -1.70672 2.0138 2.21819
v -1.68889 1.9881 2.23923
v -1.57153 1.94573 2.07064
v -1.53071 1.95636 2.06961
v -1.71891 2.01144 2.20332
v -1.65947 2.01886 2.1427
v -1.62716 1.9422 2.07213
v -1.6594 1.94963 2.14198
v -1.7189 1.95931 2.20307
v -1.6272 2.02064 2.07282
vn -0.6974 0.0177 0.7164
vn -0.4569 0.7527 0.4741
vn -0.5355 0.782 0.319
vn -0.8262 0.0145 0.5632
vn -0.0644 0.9937 0.0917
vn -0.1108 0.9935 0.0265
vn -0.0433 -0.9815 0.1865
vn 0 -0.9866 0.1634
vn 0 -0.618 0.7862
vn -0.2832 -0.6323 0.7211
vn -0.1071 -0.9775 0.1818
vn -0.4933 -0.6832 0.5384
vn -0 0.9857 0.1685
vn -0.022 0.9864 0.163
vn -0.252 0.6882 0.6804
vn 0 0.6698 0.7426
vn 0 0.0219 0.9998
vn -0.3724 0.0212 0.9278
vn -0.1516 -0.9762 0.1549
vn -0.5627 -0.7134 0.4176
vn 0.0705 0.9962 -0.051
vn 0.0439 0.999 -0.0127
vn -0.0136 -0.9974 0.0712
vn 0.0534 -0.9979 0.0372
vn -0 0.9956 -0.0941
vn 0.0835 -0.9919 -0.096
vn -0 -0.981 -0.1941
vn -0.0313 0.9994 -0.0176
vn 0.6974 0.0177 0.7164
vn 0.8262 0.0145 0.5632
vn 0.5355 0.782 0.319
vn 0.4569 0.7527 0.4741
vn 0.0644 0.9937 0.0917
vn 0.1108 0.9935 0.0265
vn 0.0433 -0.9815 0.1865
vn 0.2831 -0.6323 0.7211
vn 0.1071 -0.9775 0.1818
vn 0.4933 -0.6832 0.5384
vn 0.252 0.6882 0.6804
vn 0.022 0.9864 0.163
vn 0.3724 0.0212 0.9278
vn 0.1516 -0.9762 0.1549
vn 0.5627 -0.7134 0.4176
vn -0.0705 0.9962 -0.051
vn -0.0439 0.999 -0.0127
vn 0.0136 -0.9974 0.0712
vn -0.0534 -0.9979 0.0372
vn -0.0835 -0.9919 -0.096
vn 0.0313 0.9994 -0.0176
vt 0.51859 0.405953
vt 0.517614 0.406814
vt 0.513428 0.402194
vt 0.514361 0.400781
vt 0.516585 0.408373
vt 0.512872 0.404467
vt 0.516165 0.531773
vt 0.514517 0.543037
vt 0.513491 0.543037
vt 0.515066 0.531148
vt 0.518909 0.526997
vt 0.517618 0.525485
vt 0.52115 0.424389
vt 0.519438 0.413092
vt 0.520439 0.412404
vt 0.522149 0.424391
vt 0.523138 0.424389
vt 0.521393 0.412015
vt 0.522469 0.523009
vt 0.521706 0.520758
vt 0.513918 0.530752
vt 0.516367 0.524618
vt 0.512365 0.543037
vt 0.520658 0.519412
vt 0.518555 0.413661
vt 0.515711 0.409987
vt 0.523138 0.526043
vt 0.51981 0.528628
vt 0.520371 0.424388
vt 0.517029 0.532369
vt 0.515309 0.543037
vt 0.512379 0.407483
vt 0.51859 0.442826
vt 0.514361 0.447998
vt 0.513428 0.446584
vt 0.517614 0.441964
vt 0.516585 0.440406
vt 0.512872 0.444312
vt 0.516165 0.554301
vt 0.515066 0.554926
vt 0.518909 0.559076
vt 0.517617 0.560588
vt 0.520439 0.436375
vt 0.519438 0.435686
vt 0.521393 0.436764
vt 0.522469 0.563064
vt 0.521706 0.565315
vt 0.516367 0.561455
vt 0.513918 0.555322
vt 0.520658 0.566661
vt 0.518555 0.435117
vt 0.515711 0.438791
vt 0.523138 0.56003
vt 0.519809 0.557445
vt 0.517029 0.553704
vt 0.51238 0.441295
usemtl material_1
f 1/1/1 2/2/2 3/3/3 4/4/4 
f 5/5/5 6/6/6 3/3/3 2/2/2 
f 7/7/7 8/8/8 9/9/9 10/10/10 
f 11/11/11 7/7/7 10/10/10 12/12/12 
f 13/13/13 14/14/14 15/15/15 16/16/16 
f 17/17/17 16/16/16 15/15/15 18/18/18 
f 19/19/19 11/11/11 12/12/12 20/20/20 
f 14/14/14 5/5/5 2/2/2 15/15/15 
f 18/18/18 15/15/15 2/2/2 1/1/1 
f 10/10/10 18/21/18 1/22/1 12/12/12 
f 9/9/9 17/23/17 18/21/18 10/10/10 
f 12/12/12 1/22/1 4/24/4 20/20/20 
f 21/25/21 22/26/22 5/5/5 14/14/14 
f 23/27/23 24/28/24 11/11/11 19/19/19 
f 25/29/25 21/25/21 14/14/14 13/13/13 
f 24/28/24 26/30/26 7/7/7 11/11/11 
f 26/30/26 27/31/27 8/8/8 7/7/7 
f 22/26/22 28/32/28 6/6/6 5/5/5 
f 29/33/29 30/34/30 31/35/31 32/36/32 
f 33/37/33 32/36/32 31/35/31 34/38/34 
f 35/39/35 36/40/36 9/9/9 8/8/8 
f 37/41/37 38/42/38 36/40/36 35/39/35 
f 13/13/13 16/16/16 39/43/39 40/44/40 
f 17/17/17 41/45/41 39/43/39 16/16/16 
f 42/46/42 43/47/43 38/42/38 37/41/37 
f 40/44/40 39/43/39 32/36/32 33/37/33 
f 41/45/41 29/33/29 32/36/32 39/43/39 
f 36/40/36 38/42/38 29/48/29 41/49/41 
f 9/9/9 36/40/36 41/49/41 17/23/17 
f 38/42/38 43/47/43 30/50/30 29/48/29 
f 44/51/44 40/44/40 33/37/33 45/52/45 
f 46/53/46 42/46/42 37/41/37 47/54/47 
f 25/29/25 13/13/13 40/44/40 44/51/44 
f 47/54/47 37/41/37 35/39/35 48/55/48 
f 48/55/48 35/39/35 8/8/8 27/31/27 
f 45/52/45 33/37/33 34/38/34 49/56/49 
s off
g _1
v -2.95209 0.433677 1.1557
v -2.79134 1.45808 0.974356
v -2.65095 1.45808 1.05541
v -2.87532 0.433677 1.20002
v -2.65095 1.45808 1.21752
v -2.87532 0.433677 1.28866
v -2.79134 1.45808 1.29857
v -2.95209 0.433677 1.33298
v -2.93173 1.45808 1.21752
v -3.02886 0.433677 1.28866
v -2.93173 1.45808 1.05541
v -3.02886 0.433677 1.20002
v 4.16583 0.433677 1.1557
v 4.08906 0.433677 1.20002
v 3.86469 1.45808 1.05541
v 4.00508 1.45808 0.974356
v 4.08906 0.433677 1.28866
v 3.86469 1.45808 1.21752
v 4.16583 0.433677 1.33298
v 4.00508 1.45808 1.29857
v 4.24259 0.433677 1.28866
v 4.14547 1.45808 1.21752
v 4.24259 0.433677 1.20002
v 4.14547 1.45808 1.05541
v -2.95209 0.433677 -2.42782
v -2.87532 0.433677 -2.47214
v -2.65095 1.45808 -2.32753
v -2.79134 1.45808 -2.24648
v -2.87532 0.433677 -2.56078
v -2.65095 1.45808 -2.48964
v -2.95209 0.433677 -2.6051
v -2.79134 1.45808 -2.57069
v -3.02886 0.433677 -2.56078
v -2.93173 1.45808 -2.48964
v -3.02886 0.433677 -2.47214
v -2.93173 1.45808 -2.32753
v 4.16583 0.433677 -2.42782
v 4.00508 1.45808 -2.24648
v 3.86469 1.45808 -2.32753
v 4.08906 0.433677 -2.47214
v 3.86469 1.45808 -2.48964
v 4.08906 0.433677 -2.56078
v 4.00508 1.45808 -2.57069
v 4.16583 0.433677 -2.6051
v 4.14547 1.45808 -2.48964
v 4.24259 0.433677 -2.56078
v 4.14547 1.45808 -2.32753
v 4.24259 0.433677 -2.47214
vn -0.0067 -0.1733 -0.9848
vn -0.0066 -0.1733 -0.9848
vn 0.8385 -0.2519 -0.4832
vn 0.8528 -0.1521 0.4997
vn 0.0013 0.0334 0.9994
vn -0.8604 0.116 0.4963
vn -0.8657 0.0114 -0.5004
vn 0.0067 -0.1733 -0.9848
vn -0.8385 -0.2519 -0.4832
vn 0.0066 -0.1733 -0.9848
vn -0.8528 -0.1521 0.4997
vn -0.0013 0.0334 0.9994
vn 0.8604 0.116 0.4963
vn 0.8657 0.0114 -0.5004
vn -0.0067 -0.1733 0.9848
vn 0.8385 -0.2519 0.4832
vn -0.0066 -0.1733 0.9848
vn 0.8528 -0.1521 -0.4997
vn 0.0013 0.0334 -0.9994
vn -0.8604 0.116 -0.4963
vn -0.8657 0.0114 0.5004
vn 0.0067 -0.1733 0.9848
vn 0.0066 -0.1733 0.9848
vn -0.8385 -0.2519 0.4832
vn -0.8528 -0.1521 -0.4997
vn -0.0013 0.0334 -0.9994
vn 0.8604 0.116 -0.4963
vn 0.8657 0.0114 0.5004
vt 0.343351 0.169724
vt 0.28691 0.174257
vt 0.285812 0.165606
vt 0.34275 0.164994
vt 0.28691 0.156956
vt 0.343351 0.160263
vt 0.289311 0.148573
vt 0.344664 0.15568
vt 0.291431 0.140115
vt 0.345823 0.151055
vt 0.346119 0.178849
vt 0.291973 0.190945
vt 0.289489 0.182586
vt 0.344761 0.174278
vt 0.214816 0.169724
vt 0.215417 0.164994
vt 0.272355 0.165606
vt 0.271257 0.174257
vt 0.214816 0.160263
vt 0.271257 0.156956
vt 0.213503 0.15568
vt 0.268856 0.148573
vt 0.212344 0.151055
vt 0.266736 0.140115
vt 0.212048 0.178849
vt 0.213406 0.174278
vt 0.268678 0.182586
vt 0.266195 0.190945
vt 0.384793 0.179345
vt 0.385394 0.174615
vt 0.442333 0.175228
vt 0.441234 0.183878
vt 0.384793 0.169885
vt 0.441234 0.166577
vt 0.38348 0.165301
vt 0.438833 0.158195
vt 0.382321 0.160676
vt 0.436713 0.149737
vt 0.382025 0.18847
vt 0.383383 0.1839
vt 0.438655 0.192207
vt 0.436172 0.200566
vt 0.823862 0.242554
vt 0.819329 0.186113
vt 0.82798 0.185015
vt 0.828592 0.241953
vt 0.83663 0.186113
vt 0.833322 0.242554
vt 0.845013 0.188514
vt 0.837906 0.243867
vt 0.853471 0.190634
vt 0.842531 0.245026
vt 0.814737 0.245322
vt 0.802641 0.191176
vt 0.810999 0.188692
vt 0.819308 0.243964
usemtl material_2
f 50/57/50 51/58/51 52/59/52 53/60/52 
f 53/60/52 52/59/52 54/61/53 55/62/53 
f 55/62/53 54/61/53 56/63/54 57/64/54 
f 57/64/54 56/63/54 58/65/55 59/66/55 
f 59/67/55 58/68/55 60/69/56 61/70/56 
f 61/70/56 60/69/56 51/58/51 50/57/50 
f 62/71/57 63/72/58 64/73/58 65/74/59 
f 63/72/58 66/75/60 67/76/60 64/73/58 
f 66/75/60 68/77/61 69/78/61 67/76/60 
f 68/77/61 70/79/62 71/80/62 69/78/61 
f 70/81/62 72/82/63 73/83/63 71/84/62 
f 72/82/63 62/71/57 65/74/59 73/83/63 
f 74/85/64 75/86/65 76/87/65 77/88/66 
f 75/86/65 78/89/67 79/90/67 76/87/65 
f 78/89/67 80/91/68 81/92/68 79/90/67 
f 80/91/68 82/93/69 83/94/69 81/92/68 
f 82/95/69 84/96/70 85/97/70 83/98/69 
f 84/96/70 74/85/64 77/88/66 85/97/70 
f 86/99/71 87/100/72 88/101/73 89/102/73 
f 89/102/73 88/101/73 90/103/74 91/104/74 
f 91/104/74 90/103/74 92/105/75 93/106/75 
f 93/106/75 92/105/75 94/107/76 95/108/76 
f 95/109/76 94/110/76 96/111/77 97/112/77 
f 97/112/77 96/111/77 87/100/72 86/99/71 
s off
g _2
v -3.43847 1.61015 1.48479
v -3.43847 2.39333 1.48479
v -3.43847 2.39333 -2.78009
v -3.43847 1.61015 -2.78009
v -3.28639 1.45808 -2.78009
v -3.28639 1.45808 1.48479
v -3.39026 1.50628 1.48479
v -3.39026 1.50628 -2.78009
v -3.28639 2.5454 1.48479
v -3.28639 2.5454 -2.78009
v -3.39026 2.4972 -2.78009
v -3.39026 2.4972 1.48479
v 4.58198 2.5454 1.48479
v -0.544092 2.43667 1.48479
v -0.382434 2.43667 1.48479
v 4.58198 1.45808 -2.78009
v 4.58198 2.5454 -2.78009
v 4.73406 1.61015 1.48479
v 4.73406 1.61015 -2.78009
v 4.73406 2.39333 -2.78009
v 4.73406 2.39333 1.48479
v 4.68585 1.50628 -2.78009
v 4.68585 1.50628 1.48479
v 4.58198 1.45808 1.48479
v 4.68585 2.4972 1.48479
v 4.68585 2.4972 -2.78009
v 4.58198 1.56681 1.48479
v -3.28639 1.56681 1.48479
v -0.382434 1.56681 1.48479
v -0.544092 1.56681 1.48479
v 4.58198 2.43667 1.48479
v -3.28639 2.43667 1.48479
v 4.58198 2.43667 -2.03407
v 4.58198 1.56681 -2.03407
v -0.382435 2.43667 -2.03407
v -0.382435 1.56681 -2.03407
v -3.28639 1.56681 -2.03407
v -3.28639 2.43667 -2.03407
v -0.544092 2.43667 -2.03407
v -0.544092 1.56681 -2.03407
vn -0.9765 -0.2156 0
vn -0.9765 0.2156 0
vn -0.2156 -0.9765 -0
vn -0.7071 -0.7071 -0
vn -0.2155 0.9765 0
vn -0.7071 0.7071 0
vn 0 -0 1
vn -0 0 -1
vn 0.9765 -0.2156 -0
vn 0.9765 0.2156 0
vn 0.2156 -0.9765 -0
vn 0.7071 -0.7071 -0
vn 0.2155 0.9765 0
vn 0.7071 0.7071 0
vn -1 0 0
vn 0 -1 -0
vn 1 0 -0
vn 0 1 0
vt 0.506158 0.760588
vt 0.548286 0.760586
vt 0.548285 0.989994
vt 0.506158 0.989992
vt 0.493839 0.989995
vt 0.493839 0.760586
vt 0.499999 0.760587
vt 0.499999 0.989993
vt 0.560604 0.760587
vt 0.560603 0.989991
vt 0.554444 0.989993
vt 0.554445 0.760587
vt 0.49028 0.7381
vt 0.490313 0.314762
vt 0.496147 0.462302
vt 0.496145 0.471
vt 0.018181 0.408753
vt 0.441413 0.408753
vt 0.441413 0.467239
vt 0.01818 0.467241
vt 0.058286 0.760593
vt 0.058289 0.99
vt 0.016162 0.99
vt 0.016159 0.760593
vt 0.070607 0.989998
vt 0.064448 0.989999
vt 0.064447 0.760592
vt 0.070606 0.760592
vt 0.983841 0.760593
vt 0.99 0.760594
vt 0.989997 0.99
vt 0.983838 0.99
vt 0.01 0.760594
vt 0.010001 0.99
vt 0.546205 0.74355
vt 0.540628 0.746153
vt 0.542944 0.737962
vt 0.540617 0.306528
vt 0.546206 0.309122
vt 0.542946 0.314706
vt 0.447 0.411345
vt 0.449594 0.416932
vt 0.449593 0.459059
vt 0.447 0.464646
vt 0.542949 0.470923
vt 0.542949 0.462227
vt 0.548795 0.314714
vt 0.496128 0.738086
vt 0.4929 0.309169
vt 0.498488 0.30657
vt 0.496162 0.314751
vt 0.548795 0.737971
vt 0.498491 0.746259
vt 0.492892 0.743684
vt 0.789328 0.342163
vt 0.742539 0.342163
vt 0.742539 0.152886
vt 0.789328 0.152886
vt 0.01 0.55704
vt 0.277033 0.55704
vt 0.277033 0.746317
vt 0.01 0.746317
vt 0.01 0.235011
vt 0.01 0.188222
vt 0.199278 0.188222
vt 0.199278 0.235011
vt 0.289019 0.747102
vt 0.289019 0.480069
vt 0.478296 0.480069
vt 0.478296 0.747102
vt 0.770086 0.746259
vt 0.723296 0.746259
vt 0.723296 0.556982
vt 0.770086 0.556982
vt 0.789328 0.544211
vt 0.742539 0.544211
vt 0.742539 0.354934
vt 0.789328 0.354934
vt 0.70915 0.553891
vt 0.561643 0.553891
vt 0.561643 0.364613
vt 0.70915 0.364613
vt 0.199278 0.249157
vt 0.199278 0.396664
vt 0.01 0.396664
vt 0.01 0.249157
vt 0.850263 0.566661
vt 0.803474 0.566661
vt 0.803474 0.419154
vt 0.850263 0.419154
vt 0.01 0.497422
vt 0.277033 0.497422
vt 0.277033 0.544211
vt 0.01 0.544211
vt 0.012596 0.411347
vt 0.012593 0.464648
vt 0.010006 0.416935
vt 0.01 0.459061
usemtl material_3
f 98/113/78 99/114/79 100/115/79 101/116/78 
f 102/117/80 103/118/80 104/119/81 105/120/81 
f 105/120/81 104/119/81 98/113/78 101/116/78 
f 106/121/82 107/122/82 108/123/83 109/124/83 
f 109/124/83 108/123/83 100/115/79 99/114/79 
f 110/125/84 106/126/84 111/127/84 112/128/84 
f 113/129/85 102/130/85 107/131/85 114/132/85 
f 115/133/86 116/134/86 117/135/87 118/136/87 
f 113/137/88 119/138/89 120/139/89 121/140/88 
f 119/138/89 116/134/86 115/133/86 120/139/89 
f 110/141/90 122/142/91 123/143/91 114/144/90 
f 122/145/91 118/136/87 117/135/87 123/146/91 
f 120/147/84 115/148/84 124/149/84 
f 114/144/90 107/122/82 106/121/82 110/141/90 
f 98/150/84 104/151/84 125/152/84 
f 105/153/85 101/154/85 100/155/85 108/156/85 
f 126/157/84 112/128/84 111/127/84 127/158/84 
f 104/151/84 103/159/84 125/152/84 
f 110/125/84 112/128/84 128/160/84 
f 109/161/84 99/162/84 129/163/84 
f 121/164/84 120/147/84 124/149/84 
f 118/165/84 122/166/84 128/160/84 
f 106/126/84 109/161/84 129/163/84 
f 122/166/84 110/125/84 128/160/84 
f 106/126/84 129/163/84 111/127/84 
f 103/118/80 102/117/80 113/137/88 121/140/88 
f 125/152/84 103/159/84 127/158/84 
f 99/162/84 98/150/84 125/152/84 129/163/84 
f 115/148/84 118/165/84 128/160/84 124/149/84 
f 124/167/92 128/168/92 130/169/92 131/170/92 
f 128/171/93 112/172/93 132/173/93 130/174/93 
f 112/175/94 126/176/94 133/177/94 132/178/94 
f 126/179/95 124/180/95 131/181/95 133/182/95 
f 129/183/94 125/184/94 134/185/94 135/186/94 
f 127/187/92 111/188/92 136/189/92 137/190/92 
f 111/191/93 129/192/93 135/193/93 136/194/93 
f 125/195/95 127/196/95 137/197/95 134/198/95 
f 137/199/84 136/200/84 135/201/84 134/202/84 
f 133/203/84 131/204/84 130/205/84 132/206/84 
f 119/207/85 113/129/85 114/132/85 123/208/85 
f 116/209/85 119/207/85 123/208/85 117/210/85 
f 102/130/85 105/153/85 108/156/85 107/131/85 
f 124/149/84 126/157/84 121/164/84 
f 121/164/84 126/157/84 127/158/84 103/159/84 
s off
g _3
v -0.549003 2.41029 2.02623
v -0.549003 1.59374 2.02623
v -0.549003 1.59374 1.89584
v -0.549003 2.41029 1.89583
v -3.25033 2.41027 2.06385
v -0.580149 2.41027 2.06385
v -0.564568 2.42585 2.02623
v -3.26591 2.42585 2.02623
v -0.564568 1.57818 1.89584
v -0.564568 1.57818 2.02623
v -3.26591 1.57818 2.02623
v -3.26591 1.57818 1.89583
v -3.22978 1.64652 2.07943
v -3.22978 2.35751 2.07943
v -3.2659 2.39471 2.06385
v -3.2659 1.60933 2.06385
v -0.600703 2.35751 2.07943
v -0.616268 2.37308 2.07943
v -3.21421 2.37308 2.07943
v -0.600704 1.64652 2.07943
v -0.564584 1.60933 2.06385
v -0.564584 2.39471 2.06385
v -0.616269 1.63095 2.07943
v -3.21421 1.63095 2.07943
v -3.25033 1.59376 2.06385
v -0.580149 1.59376 2.06385
v -3.28148 2.41029 1.89583
v -3.26591 2.42585 1.89583
v -0.564568 2.42585 1.89583
v -3.28148 1.59374 1.89583
v -3.28148 2.41029 2.02623
v -3.28148 1.59374 2.02623
v -0.640459 2.38482 1.89583
v -0.640459 1.62192 1.89583
v -0.640459 1.62192 -1.46202
v -0.640459 2.38482 -1.46202
v -0.764828 1.67071 1.77591
v -0.764828 1.67071 -1.34783
v -3.06566 1.67071 -1.34783
v -3.06565 1.67071 1.77591
v -0.764828 2.38482 1.77591
v -0.764828 2.38482 -1.34783
v -3.06565 2.38482 1.77591
v -3.19002 2.38482 1.89583
v -3.19003 2.38482 -1.46202
v -3.06566 2.38482 -1.34783
v -3.19003 1.62192 -1.46202
v -3.19002 1.62192 1.89583
vn 0.8979 0.3649 0.246
vn 0.8979 -0.365 0.246
vn 0.9239 -0.3827 0
vn 0.9239 0.3827 0
vn -0.2271 0.5928 0.7726
vn 0.2271 0.5928 0.7726
vn 0.3649 0.8979 0.246
vn -0.365 0.8979 0.2461
vn 0.3827 -0.9239 -0
vn 0.3649 -0.8979 0.246
vn -0.3649 -0.8979 0.246
vn -0.3827 -0.9239 0
vn -0.1527 -0.0518 0.9869
vn -0.1527 0.0518 0.9869
vn -0.5951 0.2269 0.7709
vn -0.5951 -0.227 0.7709
vn 0.1527 0.0518 0.9869
vn 0.0691 0.2002 0.9773
vn -0.0691 0.2002 0.9773
vn 0.1527 -0.0518 0.9869
vn 0.5951 -0.227 0.7709
vn 0.5951 0.227 0.7709
vn 0.0691 -0.2002 0.9773
vn -0.0691 -0.2002 0.9773
vn -0.2271 -0.5928 0.7726
vn 0.2271 -0.5928 0.7726
vn 0 -0 -1
vn 0.3827 0.9239 0
vn -0.3827 0.9239 0
vn -0.8979 0.3649 0.2461
vn -0.8979 -0.3649 0.2461
vn 1 0 0
vn 0 1 0
vn -1 -0 0
vn 0 -0 1
vn -0 -1 -0
vn -0.9239 0.3827 0
vn -0.9239 -0.3827 0
vt 0.523823 0.248754
vt 0.523781 0.292232
vt 0.516863 0.292879
vt 0.516863 0.248057
vt 0.462203 0.467387
vt 0.462203 0.323759
vt 0.464393 0.322921
vt 0.464393 0.468225
vt 0.523138 0.72381
vt 0.516124 0.72381
vt 0.516124 0.578506
vt 0.523138 0.578506
vt 0.500237 0.151814
vt 0.461934 0.151765
vt 0.459834 0.149737
vt 0.502322 0.149774
vt 0.461931 0.293574
vt 0.461094 0.292733
vt 0.461099 0.152607
vt 0.500231 0.293626
vt 0.502332 0.295654
vt 0.459845 0.295614
vt 0.501066 0.292785
vt 0.501073 0.152657
vt 0.50317 0.150617
vt 0.50317 0.294803
vt 0.846219 0.259327
vt 0.847056 0.260164
vt 0.847056 0.405469
vt 0.846219 0.406306
vt 0.802298 0.406306
vt 0.80146 0.405469
vt 0.80146 0.260164
vt 0.802298 0.259327
vt 0.458997 0.294771
vt 0.458996 0.150587
vt 0.471407 0.322921
vt 0.471407 0.468225
vt 0.522842 0.342364
vt 0.52284 0.384589
vt 0.520586 0.385208
vt 0.520608 0.341749
vt 0.513934 0.722972
vt 0.513933 0.579344
vt 0.526058 0.249369
vt 0.526032 0.291602
vt 0.391646 0.204258
vt 0.391646 0.245294
vt 0.211029 0.245294
vt 0.21103 0.204258
vt 0.728393 0.350468
vt 0.560369 0.350468
vt 0.560369 0.226707
vt 0.728393 0.226708
vt 0.683494 0.213805
vt 0.515469 0.213805
vt 0.515469 0.175394
vt 0.683494 0.175394
vt 0.217479 0.389229
vt 0.211029 0.395918
vt 0.211027 0.258779
vt 0.217478 0.265468
vt 0.391643 0.258778
vt 0.385501 0.265468
vt 0.391646 0.395918
vt 0.385504 0.389229
vt 0.359575 0.374161
vt 0.235815 0.374161
vt 0.235815 0.335749
vt 0.359575 0.335749
vt 0.445511 0.217086
vt 0.445511 0.397703
vt 0.404475 0.397703
vt 0.404475 0.217086
vt 0.782987 0.746259
vt 0.782987 0.578235
vt 0.821399 0.578235
vt 0.821399 0.746259
vt 0.359575 0.322847
vt 0.235815 0.322847
vt 0.235815 0.284435
vt 0.359575 0.284435
vt 0.699529 0.566661
vt 0.699529 0.747278
vt 0.562389 0.747278
vt 0.562389 0.566661
vt 0.513656 0.385885
vt 0.520818 0.38636
vt 0.513809 0.387063
vt 0.516984 0.246868
vt 0.524073 0.247601
vt 0.526331 0.292764
vt 0.524008 0.293381
vt 0.520863 0.340599
vt 0.52313 0.341215
vt 0.526345 0.248218
vt 0.523138 0.385751
vt 0.513656 0.341078
vt 0.513796 0.339885
vt 0.517025 0.294057
usemtl material_4
f 138/211/96 139/212/97 140/213/98 141/214/99 
f 142/215/100 143/216/101 144/217/102 145/218/103 
f 146/219/104 147/220/105 148/221/106 149/222/107 
f 150/223/108 151/224/109 152/225/110 153/226/111 
f 151/224/109 154/227/112 155/228/113 156/229/114 
f 154/227/112 157/230/115 158/231/116 159/232/117 
f 160/233/118 161/234/119 162/235/120 163/236/121 
f 164/237/122 165/238/122 166/239/122 141/240/122 140/241/122 146/242/122 149/243/122 167/244/122 
f 156/229/114 155/228/113 143/245/101 142/246/100 
f 145/218/103 144/217/102 166/247/123 165/248/124 
f 153/249/111 152/250/110 168/251/125 169/252/126 
f 163/253/121 162/254/120 148/221/106 147/220/105 
f 159/255/117 158/256/116 139/212/97 138/211/96 
f 170/257/127 171/258/127 172/259/127 173/260/127 
f 174/261/128 175/262/128 176/263/128 177/264/128 
f 178/265/129 179/266/129 175/267/129 174/268/129 
f 180/269/128 181/270/128 170/271/128 178/272/128 
f 178/272/128 170/271/128 173/273/128 179/274/128 
f 179/274/128 173/273/128 182/275/128 183/276/128 
f 176/277/130 175/278/130 179/279/130 183/280/130 
f 184/281/129 185/282/129 181/283/129 182/284/129 
f 183/285/127 180/286/127 177/287/127 176/288/127 
f 180/289/122 178/290/122 174/291/122 177/292/122 
f 182/275/128 181/270/128 180/269/128 183/276/128 
f 185/293/131 184/294/131 172/295/131 171/296/131 
f 164/297/132 168/251/125 145/298/103 165/299/124 
f 166/300/123 144/301/102 138/211/96 141/214/99 
f 158/231/116 157/230/115 160/233/118 163/236/121 
f 150/223/108 153/226/111 162/235/120 161/234/119 
f 139/212/97 158/256/116 163/302/121 147/303/105 
f 153/249/111 169/252/126 148/304/106 162/305/120 
f 143/245/101 155/228/113 154/227/112 159/232/117 
f 156/229/114 142/246/100 152/225/110 151/224/109 
f 144/301/102 143/306/101 159/255/117 138/211/96 
f 142/307/100 145/298/103 168/251/125 152/250/110 
f 169/252/126 167/308/133 149/309/107 148/304/106 
f 140/213/98 139/212/97 147/303/105 146/310/104 
f 167/308/133 169/252/126 168/251/125 164/297/132 
f 157/230/115 154/227/112 151/224/109 150/223/108 
f 160/233/118 157/230/115 150/223/108 161/234/119 
s off
